<?xml version="1.0" encoding="UTF-8" standalone="no"?>
<!-- Created with Inkscape (http://www.inkscape.org/) -->

<svg
   version="1.1"
   id="svg834"
   width="267.20001"
   height="217.28"
   viewBox="0 0 267.20001 217.28"
   sodipodi:docname="twt.svg"
   inkscape:version="1.2.2 (b0a8486541, 2022-12-01)"
   xmlns:inkscape="http://www.inkscape.org/namespaces/inkscape"
   xmlns:sodipodi="http://sodipodi.sourceforge.net/DTD/sodipodi-0.dtd"
   xmlns="http://www.w3.org/2000/svg"
   xmlns:svg="http://www.w3.org/2000/svg">
  <defs
     id="defs838" />
  <sodipodi:namedview
     id="namedview836"
     pagecolor="#505050"
     bordercolor="#eeeeee"
     borderopacity="1"
     inkscape:showpageshadow="0"
     inkscape:pageopacity="0"
     inkscape:pagecheckerboard="0"
     inkscape:deskcolor="#505050"
     showgrid="false"
     inkscape:zoom="1.1807634"
     inkscape:cx="106.71062"
     inkscape:cy="105.86371"
     inkscape:window-width="1366"
     inkscape:window-height="699"
     inkscape:window-x="0"
     inkscape:window-y="800"
     inkscape:window-maximized="1"
     inkscape:current-layer="g840" />
  <g
     inkscape:groupmode="layer"
     inkscape:label="Image"
     id="g840">
    <path
       style="fill:#000000;stroke:#000000;stroke-width:1.51516"
       d="m 79.270654,216.56181 c -0.88195,-0.0831 -4.30952,-0.34199 -7.61683,-0.5754 -20.83629,-1.47048 -43.84402,-8.4931 -62.7386,-19.14963 -3.11263,-1.75553 -3.37597,-1.90926 -4.71855,-2.75473 l -1.31103,-0.82559 9.93007,0.0154 c 10.34099,0.016 14.82789,-0.40104 23.56018,-2.19 14.15807,-2.90053 28.9413,-9.22328 40.05128,-17.12983 1.12853,-0.80314 2.80944,-2.00145 3.73534,-2.66291 0.92591,-0.66146 1.69031,-1.33795 1.69868,-1.50332 0.008,-0.16537 -0.57108,-0.3007 -1.28766,-0.30074 -0.71659,-4e-5 -3.46767,-0.35969 -6.11351,-0.79921 -7.19621,-1.19542 -12.52812,-3.04392 -18.64118,-6.46268 -6.24658,-3.49342 -13.78898,-10.49148 -17.88122,-16.59073 -3.06642,-4.57032 -7.03954,-12.69568 -6.48101,-13.2542 0.10984,-0.10984 1.53221,0.008 3.16082,0.26277 5.70946,0.89175 20.21692,-0.49142 20.71133,-1.97465 0.0888,-0.2665 -0.24675,-0.47107 -0.77939,-0.4751 -1.64169,-0.0124 -8.34586,-2.32407 -12.16707,-4.19529 -5.36045,-2.62496 -10.67788,-6.51728 -15.02634,-10.99917 -3.17973,-3.2773 -8.01771,-9.49786 -8.01771,-10.30898 0,-0.12256 -0.32733,-0.70168 -0.72741,-1.28693 -1.06211,-1.55374 -3.24419,-6.624689 -4.33925,-10.084039 -1.09326,-3.453685 -2.54997,-11.739341 -2.55009,-14.504738 l -8e-5,-1.876843 3.70819,1.71929 c 4.44058,2.058853 8.07342,3.180302 12.92857,3.991013 5.71805,0.954797 8.21815,1.184 8.21815,0.753413 0,-0.213945 -1.03729,-1.120424 -2.30509,-2.014399 -2.72799,-1.923605 -7.72233,-6.696453 -9.95668,-9.515116 -7.05637,-8.901701 -10.70302,-18.063508 -11.8077,-29.665535 -0.71761,-7.536751 0.28827,-15.417034 2.89116,-22.650036 1.15629,-3.213167 2.40848,-6.039837 3.30089,-7.451421 l 0.78247,-1.237693 1.86534,2.239907 c 4.87457,5.853394 15.83363,16.431916 21.64378,20.892221 2.36484,1.815429 2.34743,1.801983 4.2093,3.24982 2.17938,1.69474 12.8747,8.765616 13.25876,8.765616 0.16952,0 0.59302,0.253404 0.94111,0.563116 1.44875,1.289023 17.14167,9.017869 20.87762,10.282339 0.55122,0.186564 2.265,0.811528 3.80841,1.388808 4.97571,1.861059 13.33708,4.345035 19.442956,5.776064 6.65017,1.558595 21.14319,3.637496 25.35876,3.637496 1.39118,0 1.46975,-0.06654 1.30187,-1.102436 -0.0983,-0.606339 -0.39477,-2.455424 -0.6589,-4.109077 -1.64762,-10.315248 0.60703,-23.230655 5.72723,-32.807592 4.62288,-8.646738 11.28403,-15.787085 19.45568,-20.8553031 4.57823,-2.8395069 6.65438,-3.8178421 11.5226,-5.42975 18.91558,-6.2630946 39.88447,-1.7034452 54.35136,11.8186101 2.56392,2.396473 2.63471,2.431562 4.40974,2.18564 4.03447,-0.558959 14.6731,-3.860468 19.50354,-6.052574 0.69478,-0.315301 1.38368,-0.573275 1.53088,-0.573275 0.41135,0 9.983,-4.8142684 10.41505,-5.2384724 0.70364,-0.690857 0.96873,-0.3824288 0.64413,0.749412 -0.74472,2.5966724 -5.20639,10.8988184 -7.23812,13.4684784 -4.37289,5.530675 -9.10268,10.014955 -13.80407,13.087539 -3.13832,2.051045 -2.38075,2.316538 3.47255,1.216956 8.61717,-1.618796 16.96413,-4.061971 24.10791,-7.056443 0.67,-0.280842 0.69817,-0.220159 0.26959,0.580652 -0.26323,0.491848 -0.72667,1.195697 -1.02987,1.564107 -0.3032,0.368411 -1.77751,2.214517 -3.27623,4.102459 -4.02367,5.068615 -8.28436,9.605714 -12.30725,13.105686 -1.96295,1.707797 -3.84176,3.375685 -4.17512,3.706416 -0.33337,0.33073 -1.57657,1.322922 -2.76267,2.204871 l -2.15654,1.603542 -0.13251,8.619041 c -0.20783,13.518315 -2.02542,26.30916 -5.52571,38.88591 -1.40858,5.06111 -2.70889,9.3505 -3.28122,10.82391 -0.29976,0.7717 -0.94219,2.48549 -1.42761,3.80841 -4.10065,11.17532 -9.70223,22.14453 -16.6845,32.67218 -24.31843,36.66656 -59.91999,59.473 -103.20083,66.11068 -8.41442,1.29046 -25.492076,2.29953 -30.667746,1.81206 z"
       id="path1023" />
  </g>
</svg>
